<svg xmlns="http://www.w3.org/2000/svg" viewBox="0 0 299.81 89"><style>circle,path{fill:#fff}</style><title>indico</title><path d="M.08 29.33h11V89h-11zM158.58 29.33h11V89h-11zM80.04 59.33V89h-11V59.33a18.88 18.88 0 00-37.75-.08V89h-11V59.25a29.88 29.88 0 0159.75.08zM138.08 36V0h11v59.67a29.83 29.83 0 11-29.83-30.33A30.24 30.24 0 01138.08 36zm-19 4.67a18.83 18.83 0 1018.83 18.83 18.83 18.83 0 00-18.83-18.83zM208.93 89a29.835 29.835 0 110-59.67h21.65v11h-21.65a18.835 18.835 0 100 37.67h21.65v11h-21.65M299.8 59.17a29.83 29.83 0 11-29.83-29.83 29.83 29.83 0 0129.83 29.83zm-30-18.5a18.83 18.83 0 1018.83 18.83 18.83 18.83 0 00-18.83-18.83z"/><circle cx="269.98" cy="59.17" r="5.58"/><circle class="cls-1" cx="5.58" cy="17.04" r="5.58"/><circle cx="164.33" cy="17.04" r="5.58"/></svg>
